<svg width="81" height="54" viewBox="0 0 81 54" fill="none" xmlns="http://www.w3.org/2000/svg">
<g id="Logo EPS 1" clip-path="url(#clip0_28_337)">
<path id="Vector" d="M21.3167 0L26.4541 18.5151H21.0787L19.9845 14.5059H14.4279L13.2484 18.5151H11.1522L16.6164 0H21.3167ZM14.9466 12.6294H19.4764L17.2985 4.44006L14.9466 12.6294Z" fill="#DA7455"/>
<path id="Vector_2" d="M28.4614 18.4973V-0.0178223H36.4267C40.9435 -0.0178223 43.2007 1.79334 43.1983 5.41565C43.1983 9.07594 40.6877 10.9061 35.6664 10.9061H33.8154V18.4795L28.4614 18.4973ZM33.8154 9.21481H35.0198C36.9667 9.21481 37.9402 7.9235 37.9402 5.34088C37.9402 2.91967 36.9667 1.70907 35.0198 1.70907H33.8154V9.21481Z" fill="#DA7455"/>
<path id="Vector_3" d="M59.0473 -1.81999e-05V18.5151H54.9509L47.2521 6.79004V18.4973H45.4543V-0.0178223H48.8473L57.2603 12.6259V-1.81999e-05H59.0473Z" fill="#DA7455"/>
<path id="Vector_4" d="M68.0536 0V18.5151H62.696V0H68.0536Z" fill="#DA7455"/>
<path id="Vector_5" d="M2.84248 51.9242C2.70239 51.8364 2.55043 51.7693 2.39127 51.7248C2.22429 51.675 2.06087 51.6287 1.89388 51.5931L1.44268 51.4791C1.32374 51.4499 1.21156 51.3979 1.11227 51.326C1.07204 51.2984 1.03929 51.2611 1.01696 51.2176C0.99464 51.1741 0.983443 51.1257 0.984372 51.0768C0.983342 50.9936 1.00954 50.9123 1.05898 50.8454C1.12365 50.7695 1.20875 50.7139 1.30412 50.6851C1.44605 50.6379 1.5952 50.6162 1.74467 50.621C1.92979 50.6216 2.11392 50.648 2.29179 50.6994C2.48688 50.7538 2.6743 50.8328 2.84958 50.9344L3.13381 50.2223C2.93507 50.0994 2.71796 50.0092 2.49075 49.9552C2.24746 49.8971 1.99831 49.8673 1.74822 49.8662C1.427 49.8557 1.10724 49.9139 0.810283 50.0371C0.58474 50.129 0.390885 50.285 0.252498 50.4857C0.129823 50.6714 0.0654732 50.8897 0.0677518 51.1124C0.0604122 51.2966 0.104721 51.4792 0.195652 51.6394C0.27984 51.7742 0.394175 51.8876 0.529615 51.9705C0.671839 52.0551 0.823212 52.1232 0.980815 52.1735C1.1478 52.2269 1.31123 52.2732 1.47821 52.3088C1.64519 52.3444 1.79441 52.3835 1.93297 52.4227C2.05162 52.4546 2.16355 52.5076 2.26337 52.5794C2.30323 52.608 2.33544 52.6461 2.35712 52.6902C2.37881 52.7343 2.38932 52.783 2.38772 52.8322C2.38706 52.9141 2.3582 52.9934 2.30601 53.0565C2.24008 53.1286 2.15506 53.1805 2.06087 53.206C1.91629 53.2458 1.76662 53.2638 1.61677 53.2594C1.37509 53.2596 1.13503 53.2199 0.90621 53.142C0.690123 53.0728 0.485406 52.972 0.298681 52.8429L-0.0175171 53.555C0.197618 53.708 0.438231 53.8213 0.69304 53.8897C0.99217 53.9758 1.30198 54.019 1.61321 54.0179C1.93561 54.0288 2.25661 53.9705 2.5547 53.8469C2.78007 53.7514 2.97444 53.5948 3.11604 53.3948C3.24057 53.2137 3.30633 52.9986 3.30434 52.7788C3.31355 52.6075 3.27527 52.437 3.19375 52.2862C3.11223 52.1353 2.99066 52.0101 2.84248 51.9242Z" fill="url(#paint0_linear_28_337)"/>
<path id="Vector_6" d="M8.73629 52.7644L7.82678 49.9302H6.97056L6.02907 52.743L5.13021 49.9302H4.17096L5.47839 53.9287H6.46961L7.37202 51.2191L8.25311 53.9287H9.24434L10.5518 49.9302H9.66712L8.73629 52.7644Z" fill="url(#paint1_linear_28_337)"/>
<path id="Vector_7" d="M12.7581 49.9338L10.9817 53.9324H11.9303L12.2856 53.0743H14.133L14.4883 53.9324H15.4582L13.6818 49.9338H12.7581ZM12.5733 52.3728L13.2093 50.8418L13.8417 52.3728H12.5733Z" fill="url(#paint2_linear_28_337)"/>
<path id="Vector_8" d="M17.8243 49.9338L16.0479 53.9324H16.9965L17.3518 53.0743H19.185L19.5403 53.9324H20.5102L18.7338 49.9338H17.8243ZM17.6396 52.3728L18.2755 50.8418L18.9079 52.3728H17.6396Z" fill="url(#paint3_linear_28_337)"/>
<path id="Vector_9" d="M24.4645 50.1795C24.1074 50.0096 23.7157 49.9255 23.3205 49.9338H21.505V53.9323H23.3205C23.7159 53.9394 24.1076 53.8541 24.4645 53.6831C24.7846 53.5239 25.0532 53.277 25.239 52.971C25.4215 52.6492 25.5174 52.2854 25.5174 51.9153C25.5174 51.5451 25.4215 51.1813 25.239 50.8595C25.048 50.5659 24.7801 50.3306 24.4645 50.1795ZM24.4218 52.59C24.3138 52.7736 24.1561 52.923 23.9671 53.0208C23.7459 53.1278 23.502 53.1792 23.2565 53.1704H22.411V50.678H23.2565C23.502 50.6691 23.7459 50.7205 23.9671 50.8275C24.1561 50.9253 24.3138 51.0747 24.4218 51.2583C24.5356 51.4587 24.5921 51.6866 24.5853 51.917C24.5938 52.1522 24.5373 52.3851 24.4218 52.59Z" fill="url(#paint4_linear_28_337)"/>
<path id="Vector_10" d="M31.7015 51.5075H29.8896V49.9302H28.9659V53.9287H29.8896V52.2909H31.7015V53.9287H32.6253V49.9302H31.7015V51.5075Z" fill="url(#paint5_linear_28_337)"/>
<path id="Vector_11" d="M35.066 49.9302H34.1423V53.9287H35.066V49.9302Z" fill="url(#paint6_linear_28_337)"/>
<path id="Vector_12" d="M39.3258 52.3585L37.3433 49.9302H36.5795V53.9287H37.4925V51.504L39.4821 53.9287H40.2388V49.9302H39.3258V52.3585Z" fill="url(#paint7_linear_28_337)"/>
<path id="Vector_13" d="M44.7154 50.1795C44.3583 50.0096 43.9666 49.9255 43.5714 49.9338H41.7595V53.9323H43.5714C43.9669 53.9394 44.3585 53.8541 44.7154 53.6831C45.0355 53.5239 45.3041 53.277 45.4899 52.971C45.6724 52.6492 45.7684 52.2854 45.7684 51.9153C45.7684 51.5451 45.6724 51.1813 45.4899 50.8595C45.2989 50.5659 45.031 50.3306 44.7154 50.1795ZM44.6727 52.59C44.5658 52.7745 44.4078 52.9241 44.218 53.0208C44.0022 53.125 43.7647 53.1763 43.5252 53.1704H42.6796V50.678H43.5252C43.7647 50.672 44.0022 50.7233 44.218 50.8275C44.4078 50.9242 44.5658 51.0738 44.6727 51.2583C44.7865 51.4587 44.843 51.6866 44.8362 51.917C44.8447 52.1522 44.7881 52.3851 44.6727 52.59Z" fill="url(#paint8_linear_28_337)"/>
<path id="Vector_14" d="M49.7035 52.1378C49.7305 52.4317 49.6469 52.7251 49.469 52.9603C49.2883 53.121 49.0551 53.2098 48.8135 53.2098C48.5719 53.2098 48.3387 53.121 48.158 52.9603C47.9802 52.7251 47.8965 52.4317 47.9236 52.1378V49.9338H46.9998V52.1699C46.9807 52.4194 47.0132 52.6701 47.0953 52.9064C47.1774 53.1426 47.3074 53.3593 47.477 53.5429C47.6466 53.7265 47.8523 53.8729 48.0811 53.9731C48.3098 54.0733 48.5568 54.125 48.8064 54.125C49.0561 54.125 49.303 54.0733 49.5318 53.9731C49.7606 53.8729 49.9662 53.7265 50.1358 53.5429C50.3055 53.3593 50.4354 53.1426 50.5175 52.9064C50.5996 52.6701 50.6321 52.4194 50.613 52.1699V49.9338H49.7035V52.1378Z" fill="url(#paint9_linear_28_337)"/>
<path id="Vector_15" d="M54.6383 51.9242C54.4982 51.8364 54.3463 51.7693 54.1871 51.7248C54.0201 51.675 53.8567 51.6287 53.6897 51.5931L53.2349 51.4791C53.1165 51.4484 53.0046 51.3965 52.9045 51.326C52.8654 51.2975 52.8337 51.26 52.812 51.2166C52.7904 51.1732 52.7795 51.1253 52.7802 51.0768C52.7792 50.9936 52.8054 50.9123 52.8548 50.8454C52.9195 50.7695 53.0046 50.7139 53.0999 50.6851C53.2407 50.6382 53.3886 50.6165 53.5369 50.621C53.7221 50.6211 53.9063 50.6475 54.0841 50.6994C54.2805 50.7531 54.4692 50.8321 54.6454 50.9344L54.9296 50.2223C54.7309 50.0994 54.5138 50.0092 54.2866 49.9552C54.0433 49.8971 53.7941 49.8673 53.544 49.8662C53.2228 49.8557 52.9031 49.9139 52.6061 50.0371C52.3787 50.1329 52.1846 50.2939 52.0483 50.5C51.9256 50.6857 51.8613 50.904 51.8636 51.1267C51.8562 51.3108 51.9005 51.4934 51.9915 51.6536C52.0757 51.7885 52.19 51.9018 52.3254 51.9848C52.4677 52.0694 52.619 52.1374 52.7766 52.1877C52.9436 52.2411 53.1071 52.2874 53.274 52.323C53.441 52.3586 53.5902 52.3978 53.7252 52.437C53.8452 52.4681 53.9585 52.5212 54.0592 52.5936C54.0991 52.6223 54.1313 52.6603 54.153 52.7044C54.1746 52.7485 54.1851 52.7973 54.1835 52.8464C54.1829 52.9284 54.154 53.0076 54.1018 53.0707C54.0359 53.1429 53.9509 53.1947 53.8567 53.2203C53.7121 53.26 53.5624 53.278 53.4126 53.2737C53.171 53.2732 52.931 53.2335 52.702 53.1562C52.4874 53.0862 52.2839 52.9855 52.0981 52.8571L51.7819 53.5692C51.997 53.7222 52.2376 53.8355 52.4924 53.9039C52.7915 53.99 53.1014 54.0332 53.4126 54.0321C53.735 54.043 54.056 53.9848 54.3541 53.8612C54.5794 53.7656 54.7738 53.609 54.9154 53.409C55.0399 53.228 55.1057 53.0129 55.1037 52.793C55.1123 52.6223 55.0737 52.4526 54.9922 52.3024C54.9107 52.1523 54.7895 52.0276 54.6418 51.942L54.6383 51.9242Z" fill="url(#paint10_linear_28_337)"/>
<path id="Vector_16" d="M55.793 50.685H57.072V53.9287H57.9957V50.685H59.2712V49.9302H55.793V50.685Z" fill="url(#paint11_linear_28_337)"/>
<path id="Vector_17" d="M61.3922 49.9338L59.6158 53.9324H60.5608L60.9161 53.0743H62.7671L63.1224 53.9324H64.0923L62.3159 49.9338H61.3922ZM61.2074 52.3728L61.8434 50.8418L62.4758 52.3728H61.2074Z" fill="url(#paint12_linear_28_337)"/>
<path id="Vector_18" d="M67.8192 52.3585L65.8367 49.9302H65.0729V53.9287H65.9859V51.504L67.9755 53.9287H68.7322V49.9302H67.8192V52.3585Z" fill="url(#paint13_linear_28_337)"/>
<path id="Vector_19" d="M76.1433 49.9302H75.1166L73.3508 51.7959V49.9302H72.4307V53.9287H73.3508V52.9211L73.8838 52.3621L75.1628 53.9287H76.2393L74.4913 51.714L76.1433 49.9302Z" fill="url(#paint14_linear_28_337)"/>
<path id="Vector_20" d="M80.0265 53.9324H81.0036L79.2272 49.9338H78.3177L76.5413 53.9324H77.4508L77.8061 53.0743H79.6571L80.0265 53.9324ZM78.1116 52.3728L78.7475 50.8418L79.3799 52.3728H78.1116Z" fill="url(#paint15_linear_28_337)"/>
<path id="Vector_21" d="M46.9394 26.174C45.3193 26.174 43.2066 27.5412 40.6012 30.2758L39.4714 31.465V26.9359H36.5937V46.9571L39.5567 48.5167V37.3257C40.5939 38.3426 41.6837 39.3042 42.8217 40.2063C44.3542 41.3575 45.632 41.9332 46.6552 41.9332C47.8716 41.884 49.0538 41.5157 50.0836 40.865C51.2786 40.1912 52.3004 39.2477 53.068 38.1091C53.8598 36.9753 54.2874 35.6262 54.2937 34.2423C54.2937 32.462 53.5204 30.6817 51.9737 28.9014C50.3726 27.0831 48.6945 26.174 46.9394 26.174ZM50.311 36.3501C49.6061 37.1372 48.7433 37.7661 47.779 38.1957C46.8146 38.6252 45.7706 38.8457 44.7154 38.8426C44.0201 38.8344 43.3332 38.6892 42.6938 38.4153C41.1472 37.7839 40.375 37.0539 40.3774 36.2255C40.3774 34.8013 41.4894 33.1848 43.7135 31.376C45.8759 29.6076 47.6867 28.7222 49.1457 28.7198C49.8172 28.6956 50.4727 28.9285 50.9789 29.3714C51.9571 30.2354 52.445 31.1386 52.4427 32.081C52.4427 33.4411 51.7321 34.8642 50.311 36.3501Z" fill="#941F77"/>
<path id="Vector_22" d="M66.9345 26.2879C66.0745 26.2867 65.2205 26.4312 64.4085 26.7151C62.734 27.2943 61.6302 27.851 61.0973 28.3851V26.9608H57.5552V40.7047L61.108 42.5634V34.698C61.108 32.443 62.2141 30.3873 64.4263 28.531C65.5134 27.6148 66.5331 27.1567 67.4852 27.1567C67.9765 27.1661 68.4562 27.3075 68.8744 27.5661C69.4179 27.8617 69.6879 28.2213 69.6879 28.6343C69.6879 29.4283 69.2581 30.1333 68.3912 30.7529C67.6941 31.2762 66.867 31.5976 66.0001 31.6822L68.782 34.8404C69.6609 34.4068 70.4523 33.8141 71.1162 33.0922C71.9949 32.1759 72.4331 31.3522 72.4307 30.6211C72.432 29.7714 72.1062 28.9539 71.5212 28.3388C70.9513 27.6834 70.2457 27.1605 69.4536 26.8063C68.6615 26.4521 67.8018 26.2752 66.9345 26.2879Z" fill="#941F77"/>
<path id="Vector_23" d="M75.749 15.7236C76.5863 15.9967 77.2991 16.5597 77.7599 17.3116L78.9643 19.7827C79.132 19.8355 79.3072 19.8607 79.483 19.8575C79.6294 19.8776 79.7784 19.8514 79.9093 19.7827C79.911 19.5163 79.8979 19.25 79.8702 18.9851C79.5003 18.1807 79.1972 17.3471 78.9643 16.4927C78.7523 15.6757 78.4669 14.8796 78.1116 14.1142C77.7776 13.5445 77.1204 13.046 76.1469 12.6081C75.3903 12.2887 74.6171 12.0106 73.8305 11.7749H73.1199V12.2022C73.5188 13.056 73.8745 13.9295 74.1858 14.8192C74.3812 15.1397 74.8999 15.4459 75.749 15.7236Z" fill="#941F77"/>
<path id="Vector_24" d="M75.7739 40.5836L78.8861 42.3105V26.2451H75.7739V40.5836Z" fill="#941F77"/>
<path id="Vector_25" d="M73.9584 21.7161H7.55679V17.7994L4.22072 15.485V21.709H0.355286V23.9379H4.22782V37.4895C4.24145 38.2176 4.45938 38.9271 4.85667 39.5369C5.82302 41.1107 7.16953 41.9035 8.89618 41.9154C11.8758 41.9296 14.0761 40.357 15.4973 37.1976L11.7704 35.0612C11.7704 38.8734 10.8502 40.7807 9.00988 40.7831C8.79522 40.7748 8.58649 40.7103 8.40447 40.5959C8.22245 40.4816 8.0735 40.3215 7.97246 40.1315C7.71275 39.7742 7.57 39.345 7.56389 38.9031V23.9486H20.0555V28.7518L19.9631 28.8658C19.654 29.1364 19.4195 29.3429 19.2526 29.4782V30.8561C19.9631 30.6105 20.6737 30.3292 21.4233 30.0194C23.1603 29.3109 25.0158 28.94 26.8911 28.9263C27.6067 28.873 28.3251 28.9801 28.9943 29.2396C29.6225 29.5751 30.1648 30.0516 30.5788 30.6318V32.3409C29.5012 31.5243 28.0801 31.1161 26.3155 31.1161C24.9584 31.0819 23.6086 31.3264 22.3493 31.8347C21.0901 32.3429 19.9479 33.1041 18.9932 34.0714C17.9818 35.0849 17.4762 36.1056 17.4762 37.1335C17.4753 38.0556 17.8187 38.9447 18.439 39.6259C19.7606 41.1641 21.6388 41.932 24.0737 41.9296C25.6748 41.9632 27.2633 41.6397 28.7243 40.9825C29.1435 40.7831 29.68 40.4947 30.3373 40.1101C30.4971 40.2205 30.5788 40.4662 30.5788 40.8721C32.2842 41.5842 33.2659 41.9866 33.5241 42.0791V34.9223C33.5241 31.7629 33.2588 29.6633 32.7283 28.6236C31.9348 27.0665 30.1442 26.2879 27.3565 26.2879C26.6796 26.2882 26.0042 26.3501 25.3385 26.473C23.7611 26.7626 22.861 26.949 22.6384 27.0321C22.6285 27.027 22.62 27.0197 22.6135 27.0107C22.5948 26.989 22.572 26.9712 22.5464 26.9583C22.5207 26.9455 22.4928 26.9379 22.4643 26.9359V23.9486H81.0036V21.7196L73.9584 21.7161ZM28.0919 38.0379C26.1913 39.1878 24.0092 39.7857 21.7893 39.7647C20.0081 39.7647 18.9885 39.3126 18.7303 38.4082C18.7303 37.9334 19.0453 37.3139 19.6753 36.5495C21.2457 34.6695 23.3347 33.7284 25.9425 33.726C26.8604 33.7657 27.7665 33.9483 28.6284 34.2672C29.9251 34.698 30.5753 35.1894 30.5753 35.7342C30.5753 36.2789 29.7475 37.0195 28.0919 38.0379Z" fill="#941F77"/>
</g>
<defs>
<linearGradient id="paint0_linear_28_337" x1="1.6594" y1="49.681" x2="1.6594" y2="54.616" gradientUnits="userSpaceOnUse">
<stop stop-color="#DA2051"/>
<stop offset="1" stop-color="#941F77"/>
</linearGradient>
<linearGradient id="paint1_linear_28_337" x1="7.36136" y1="49.6809" x2="7.36136" y2="54.6159" gradientUnits="userSpaceOnUse">
<stop stop-color="#DA2051"/>
<stop offset="1" stop-color="#941F77"/>
</linearGradient>
<linearGradient id="paint2_linear_28_337" x1="13.2164" y1="49.681" x2="13.2164" y2="54.616" gradientUnits="userSpaceOnUse">
<stop stop-color="#DA2051"/>
<stop offset="1" stop-color="#941F77"/>
</linearGradient>
<linearGradient id="paint3_linear_28_337" x1="18.2826" y1="49.681" x2="18.2826" y2="54.616" gradientUnits="userSpaceOnUse">
<stop stop-color="#DA2051"/>
<stop offset="1" stop-color="#941F77"/>
</linearGradient>
<linearGradient id="paint4_linear_28_337" x1="23.5123" y1="49.681" x2="23.5123" y2="54.616" gradientUnits="userSpaceOnUse">
<stop stop-color="#DA2051"/>
<stop offset="1" stop-color="#941F77"/>
</linearGradient>
<linearGradient id="paint5_linear_28_337" x1="30.7956" y1="49.6809" x2="30.7956" y2="54.6159" gradientUnits="userSpaceOnUse">
<stop stop-color="#DA2051"/>
<stop offset="1" stop-color="#941F77"/>
</linearGradient>
<linearGradient id="paint6_linear_28_337" x1="34.6041" y1="49.6809" x2="34.6041" y2="54.6159" gradientUnits="userSpaceOnUse">
<stop stop-color="#DA2051"/>
<stop offset="1" stop-color="#941F77"/>
</linearGradient>
<linearGradient id="paint7_linear_28_337" x1="38.4092" y1="49.6809" x2="38.4092" y2="54.6159" gradientUnits="userSpaceOnUse">
<stop stop-color="#DA2051"/>
<stop offset="1" stop-color="#941F77"/>
</linearGradient>
<linearGradient id="paint8_linear_28_337" x1="43.7632" y1="49.681" x2="43.7632" y2="54.616" gradientUnits="userSpaceOnUse">
<stop stop-color="#DA2051"/>
<stop offset="1" stop-color="#941F77"/>
</linearGradient>
<linearGradient id="paint9_linear_28_337" x1="48.8082" y1="49.681" x2="48.8082" y2="54.616" gradientUnits="userSpaceOnUse">
<stop stop-color="#DA2051"/>
<stop offset="1" stop-color="#941F77"/>
</linearGradient>
<linearGradient id="paint10_linear_28_337" x1="53.441" y1="49.681" x2="53.441" y2="54.616" gradientUnits="userSpaceOnUse">
<stop stop-color="#DA2051"/>
<stop offset="1" stop-color="#941F77"/>
</linearGradient>
<linearGradient id="paint11_linear_28_337" x1="57.5338" y1="49.6809" x2="57.5338" y2="54.6159" gradientUnits="userSpaceOnUse">
<stop stop-color="#DA2051"/>
<stop offset="1" stop-color="#941F77"/>
</linearGradient>
<linearGradient id="paint12_linear_28_337" x1="61.8505" y1="49.681" x2="61.8505" y2="54.616" gradientUnits="userSpaceOnUse">
<stop stop-color="#DA2051"/>
<stop offset="1" stop-color="#941F77"/>
</linearGradient>
<linearGradient id="paint13_linear_28_337" x1="66.9026" y1="49.6809" x2="66.9026" y2="54.6159" gradientUnits="userSpaceOnUse">
<stop stop-color="#DA2051"/>
<stop offset="1" stop-color="#941F77"/>
</linearGradient>
<linearGradient id="paint14_linear_28_337" x1="74.335" y1="49.6809" x2="74.335" y2="54.6159" gradientUnits="userSpaceOnUse">
<stop stop-color="#DA2051"/>
<stop offset="1" stop-color="#941F77"/>
</linearGradient>
<linearGradient id="paint15_linear_28_337" x1="78.7582" y1="49.681" x2="78.7582" y2="54.616" gradientUnits="userSpaceOnUse">
<stop stop-color="#DA2051"/>
<stop offset="1" stop-color="#941F77"/>
</linearGradient>
<clipPath id="clip0_28_337">
<rect width="81" height="54" fill="white"/>
</clipPath>
</defs>
</svg>
